# xmcd CD database file
#
# Track frame offsets:
#	150
#	64407
#	84042
#	130974
#	150413
#	166998
#
# Disc length: 2891 seconds
#
# Revision: 0
# Processed by: cddbd v1.5.2PL0 Copyright (c) Steve Scherf et al.
# Submitted via: CDex 1.51
#
DISCID=400b4906
DTITLE=ONJT+ - Lonely Woman
DYEAR=2010
DGENRE=Jazz
TTITLE0=Lonely Woman (Quintet)
TTITLE1=Lonely Woman (Solo)
TTITLE2=Lonely Woman (Trio)
TTITLE3=Lonely Woman (Trio)
TTITLE4=Lonely Woman (Solo)
TTITLE5=Lonely Woman (Quintet)
EXTD=YEAR: 2010
EXTT0=
EXTT1=
EXTT2=
EXTT3=
EXTT4=
EXTT5=
PLAYORDER=
